<svg id="Layer_1" data-name="Layer 1" xmlns="http://www.w3.org/2000/svg" xmlns:xlink="http://www.w3.org/1999/xlink" viewBox="0 0 1225 311.25"><defs><style>.cls-1{fill:url(#linear-gradient);}.cls-2{fill:url(#linear-gradient-2);}.cls-3,.cls-7{fill:none;stroke-linejoin:bevel;stroke-width:23px;}.cls-3{stroke:#000;}.cls-4{fill:#fff;}.cls-5{fill:#ff0135;}.cls-6{fill:url(#linear-gradient-3);}.cls-7{stroke:#242828;}.cls-8{fill:url(#linear-gradient-4);}.cls-9{fill:url(#linear-gradient-5);}.cls-10{fill:url(#linear-gradient-6);}.cls-11{fill:url(#linear-gradient-7);}.cls-12{fill:url(#linear-gradient-8);}.cls-13{fill:url(#linear-gradient-9);}.cls-14{fill:url(#linear-gradient-10);}</style><linearGradient id="linear-gradient" x1="224.35" y1="540.88" x2="224.35" y2="488.38" gradientUnits="userSpaceOnUse"><stop offset="0" stop-color="#faffff"/><stop offset="1" stop-color="#969696"/></linearGradient><linearGradient id="linear-gradient-2" x1="224.58" y1="282.13" x2="224.58" y2="229.63" gradientUnits="userSpaceOnUse"><stop offset="0" stop-color="#969696"/><stop offset="1" stop-color="#faffff"/></linearGradient><linearGradient id="linear-gradient-3" x1="71.21" y1="291.16" x2="140.16" y2="291.16" xlink:href="#linear-gradient"/><linearGradient id="linear-gradient-4" x1="96.44" y1="336.63" x2="138.43" y2="336.63" xlink:href="#linear-gradient"/><linearGradient id="linear-gradient-5" x1="312.45" y1="336.63" x2="352.94" y2="336.63" xlink:href="#linear-gradient-2"/><linearGradient id="linear-gradient-6" x1="310.17" y1="290.86" x2="377.71" y2="290.86" xlink:href="#linear-gradient-2"/><linearGradient id="linear-gradient-7" x1="312.56" y1="433.88" x2="352.48" y2="433.88" xlink:href="#linear-gradient-2"/><linearGradient id="linear-gradient-8" x1="309.82" y1="479.83" x2="377.71" y2="479.83" xlink:href="#linear-gradient-2"/><linearGradient id="linear-gradient-9" x1="71.21" y1="479.19" x2="140.17" y2="479.19" xlink:href="#linear-gradient"/><linearGradient id="linear-gradient-10" x1="95.98" y1="433.88" x2="138.32" y2="433.88" xlink:href="#linear-gradient"/></defs><title>opnids_logo</title><path class="cls-1" d="M354.48,488.38h23v17.75c0,21.55-16.88,34.75-38.42,34.75l-267.85-1v-51.5l22.27,1v28.5H339.06a15.25,15.25,0,0,0,15.42-15.42Z" transform="translate(-71.21 -229.63)"/><path class="cls-2" d="M94.44,282.13h-23V264.38c0-21.54,16.88-34.75,38.42-34.75l267.85,1v51.5l-22.27-1v-28.5H109.86a15.27,15.27,0,0,0-15.42,15.43Z" transform="translate(-71.21 -229.63)"/><path class="cls-3" d="M71.44,384.63" transform="translate(-71.21 -229.63)"/><path class="cls-3" d="M71.44,384.63" transform="translate(-71.21 -229.63)"/><path class="cls-4" d="M876.32,518.87V287.26c0-22.84,14.38-37.32,37.3-37.36q61.32-.09,122.65,0c4.42,0,8.85.09,13.28,0,2.55-.07,3.59,1,3.36,3.46a22.82,22.82,0,0,0,0,2.34q0,112.68-.05,225.37a63.51,63.51,0,0,1-1.29,14.33c-2.72,11.52-10.7,18.48-21.83,21-8.42,1.92-17.19,2.51-25.84,3.11-6.85.48-13.76.1-20.94.1V495.82c2.65.13,5.21.41,7.76.33,9.71-.3,19.51-.06,29.11-1.31,7.79-1,10.33-5.23,10.33-13.14q0-101.94.08-203.89c0-3.86-.89-5.1-5-5.08-37.5.15-75,.08-112.49.1-8.91,0-13.43,4.54-13.43,13.44q0,107.61,0,215.22c0,4.68-.28,9.36-.26,14,0,2.46-.76,3.45-3.38,3.38C889.46,518.75,883.21,518.87,876.32,518.87Z" transform="translate(-71.21 -229.63)"/><path class="cls-4" d="M632.73,253.5c0-1.4-.14-2.8-.25-4.57H628q-68,0-135.91,0C471,248.94,456,264,456,285.11q0,114,0,228.08v4.58c1.71.08,3.1.2,4.5.2q67.95,0,135.91,0a42.23,42.23,0,0,0,9.65-1.07c16.63-4,26.73-17.64,26.73-36.07Q632.78,367.15,632.73,253.5Zm-23,227.5c0,9.42-4.53,14-13.83,14-37.49,0-75,0-112.46.08-3.58,0-4.59-1-4.57-4.57q.15-38.81.08-77.61V387q0-50.56,0-101.13c0-9.56,4.28-13.89,13.73-13.89,37.48,0,75,0,112.46-.07,3.43,0,4.69.73,4.68,4.47Q609.69,378.69,609.77,481Z" transform="translate(-71.21 -229.63)"/><path class="cls-4" d="M837.74,253.81c0-1.27-.13-2.53-.24-4.34H816.7c-37.63,0-75.26.07-112.89-.05-10.27,0-18.81,3.47-25.58,11.14-5.8,6.58-7.88,14.41-7.87,23.07q.09,114.45.07,228.9c0,.78-.27,1.75.09,2.3.65,1,1.65,2.37,2.55,2.4,6.49.21,13,.11,20.21.11V416.13c0-5.48,0-5.5,5.61-5.5q51.75,0,103.51,0a47.78,47.78,0,0,0,10.09-.74,31.63,31.63,0,0,0,25.23-31.44Q837.83,316.11,837.74,253.81Zm-23,122.29c0,8.48-3.24,11.67-11.88,11.68q-26.16,0-52.31,0c-13.18,0-26.35,0-39.53,0q-6.59,0-13.17.08c-3.63,0-4.64-1.15-4.63-4.7.12-33.05.06-66.1.08-99.16,0-8.19,3.41-11.66,11.63-11.67,35.14,0,70.27,0,105.41-.09,3.68,0,4.49,1.23,4.48,4.7C814.67,310,814.72,343.05,814.71,376.1Z" transform="translate(-71.21 -229.63)"/><path class="cls-5" d="M1114.72,375.33v18.54h-36.56V375.33Zm0,25.66V517.62h-36.56V401Z" transform="translate(-71.21 -229.63)"/><path class="cls-5" d="M1208.23,375.33V517.62h-35.5v-8.46a36.61,36.61,0,0,1-10.73,7.93,27.37,27.37,0,0,1-11.77,2.64,23.93,23.93,0,0,1-14.33-4.35q-6.06-4.35-7.78-10.06t-1.71-18.64V432.1q0-13.44,1.71-19.07t7.87-9.89a25.13,25.13,0,0,1,14.68-4.26,29.08,29.08,0,0,1,22.06,9.51V375.33Zm-35.5,55q0-6.42-1.1-8.62c-.74-1.46-2.19-2.2-4.35-2.2s-3.53.66-4.26,2-1.1,4.27-1.1,8.84v57.12q0,7.13,1,9.36a4,4,0,0,0,4,2.25q3.43,0,4.57-2.51t1.15-12.26Z" transform="translate(-71.21 -229.63)"/><path class="cls-5" d="M1293.49,438.26H1262v-6.33c0-5.39-.3-8.81-.92-10.24s-2.15-2.16-4.61-2.16a5.27,5.27,0,0,0-4.49,2q-1.49,2-1.49,5.93a29.87,29.87,0,0,0,.75,7.87c.49,1.67,2,3.5,4.48,5.49s7.6,4.9,15.34,8.71q15.47,7.56,20.3,14.23t4.83,19.43q0,14.24-3.69,21.49t-12.35,11.16q-8.65,3.91-20.87,3.91-13.53,0-23.16-4.22t-13.23-11.42q-3.6-7.21-3.6-21.8v-5.63h31.46v7.39q0,9.4,1.19,12.21t4.7,2.82q3.78,0,5.28-1.89t1.49-8q0-8.34-1.93-10.46t-20.66-12.48q-15.64-8.79-19.07-16a39,39,0,0,1-3.43-17q0-14,3.69-20.61t12.53-10.24a54.1,54.1,0,0,1,20.52-3.6q11.6,0,19.73,2.94t12.48,7.78c2.9,3.23,4.66,6.21,5.28,9a65.48,65.48,0,0,1,.92,12.92Z" transform="translate(-71.21 -229.63)"/><path class="cls-4" d="M160.69,302.89h0Zm129.5,0h0Zm0,164.49h0Z" transform="translate(-71.21 -229.63)"/><path class="cls-6" d="M139.58,299.27l.58-.56-68.72-35.4-.23,26.16L131.74,319C132,312.23,133.9,305,139.58,299.27Z" transform="translate(-71.21 -229.63)"/><path class="cls-5" d="M339.36,385.13c0-12-12.39-22.83-34.89-30.59-.94-.33-1.91-.64-2.88-1,.47-.9.93-1.81,1.37-2.7,10.42-21.4,11.5-37.85,3-46.31s-24.91-7.39-46.31,3c-.9.44-1.8.91-2.71,1.37-.31-1-.62-1.94-.94-2.88-7.76-22.5-18.63-34.89-30.6-34.89s-22.83,12.39-30.6,34.89c-.32.94-.63,1.91-.94,2.88-.91-.46-1.81-.93-2.71-1.37-21.4-10.42-37.84-11.5-46.31-3s-7.38,24.91,3,46.31c.44.89.9,1.8,1.37,2.7-1,.31-1.94.62-2.88,1-22.5,7.76-34.89,18.63-34.89,30.59s12.39,22.84,34.89,30.6c.94.33,1.91.64,2.88.95-.47.9-.93,1.81-1.37,2.7-10.42,21.4-11.5,37.85-3,46.31,3.77,3.77,9.13,5.65,15.8,5.65,8.3,0,18.65-2.91,30.51-8.69.9-.43,1.8-.9,2.71-1.36.31,1,.62,1.94.94,2.88,7.77,22.5,18.63,34.89,30.6,34.89s22.84-12.39,30.6-34.89c.32-.94.63-1.91.94-2.88.91.46,1.81.93,2.71,1.36,11.86,5.78,22.21,8.69,30.51,8.69,6.67,0,12-1.88,15.8-5.65,8.46-8.46,7.38-24.91-3-46.31-.44-.89-.9-1.8-1.37-2.7,1-.31,1.94-.62,2.88-.95C327,408,339.36,397.1,339.36,385.13Zm-76.17-70.32c10.71-5.22,20.06-7.89,27-7.89,4.45,0,7.92,1.09,10.14,3.31,5.69,5.7,4,19.58-4.57,37.15-.63,1.29-1.3,2.6-2,3.91a225.17,225.17,0,0,0-28.9-5.6,225.5,225.5,0,0,0-5.6-28.9C260.59,316.1,261.9,315.44,263.19,314.81Zm-3.83,70.32q0,7-.31,13.93-4.65,5.07-9.62,10.06c-3.32,3.32-6.69,6.53-10.07,9.62q-6.87.31-13.92.32t-13.92-.32c-3.38-3.09-6.75-6.3-10.07-9.62s-6.52-6.68-9.62-10.06q-.3-6.88-.31-13.93c0-4.69.11-9.34.31-13.92q4.65-5.07,9.62-10.06c3.32-3.33,6.69-6.53,10.07-9.63q6.87-.3,13.92-.31t13.92.31c3.38,3.1,6.75,6.3,10.07,9.63s6.52,6.68,9.62,10.06C259.25,375.79,259.36,380.44,259.36,385.13Zm-4.27-29.64c-1.07-1.07-2.15-2.12-3.23-3.17q2.94.26,5.83.57c.2,1.92.4,3.86.57,5.82Zm-12.47-11.82q-5.34-4.8-10.72-9.19a217.14,217.14,0,0,1,20.18-13.66,215.36,215.36,0,0,1,4.61,23.93C252.09,344.29,247.39,343.92,242.62,343.67ZM230,343.25c-1.5,0-3,0-4.52,0s-3,0-4.52,0c1.51-1.27,3-2.51,4.52-3.72Q227.71,341.35,230,343.25Zm-21.7.42c-4.77.25-9.47.62-14.07,1.08a215.36,215.36,0,0,1,4.61-23.93A217.14,217.14,0,0,1,219,334.48Q213.61,338.88,208.26,343.67ZM199,352.32c-1.08,1.05-2.16,2.1-3.22,3.17s-2.13,2.15-3.17,3.22c.16-2,.36-3.9.56-5.82Q196.09,352.58,199,352.32ZM184,368q-4.78,5.32-9.19,10.71a217.79,217.79,0,0,1-13.66-20.18,220.06,220.06,0,0,1,23.93-4.61Q184.36,360.8,184,368Zm-.42,12.65c0,1.51,0,3,0,4.52s0,3,0,4.53q-1.89-2.27-3.72-4.53Q181.66,382.88,183.55,380.61Zm.42,21.7q.39,7.17,1.08,14.07a217.74,217.74,0,0,1-23.93-4.6,217.88,217.88,0,0,1,13.66-20.19Q179.18,397,184,402.31Zm8.66,9.24q1.56,1.62,3.17,3.23c1.06,1.07,2.14,2.12,3.22,3.17q-2.94-.26-5.83-.57C193,415.46,192.79,413.52,192.63,411.55Zm15.63,15.05q5.34,4.8,10.72,9.19a217.14,217.14,0,0,1-20.18,13.66,215.36,215.36,0,0,1-4.61-23.93C198.79,426,203.49,426.35,208.26,426.6Zm12.66.42c1.5,0,3,0,4.52,0s3,0,4.52,0c-1.5,1.27-3,2.5-4.52,3.72C223.93,429.52,222.43,428.29,220.92,427Zm21.7-.42c4.77-.25,9.47-.62,14.07-1.08a215.36,215.36,0,0,1-4.61,23.93,217.14,217.14,0,0,1-20.18-13.66Q237.27,431.4,242.62,426.6Zm9.24-8.65c1.08-1.05,2.16-2.1,3.23-3.17s2.12-2.15,3.17-3.23c-.17,2-.37,3.91-.57,5.83Q254.8,417.69,251.86,418Zm15.05-15.64q4.79-5.34,9.19-10.72a217.88,217.88,0,0,1,13.66,20.19,217.74,217.74,0,0,1-23.93,4.6Q266.52,409.48,266.91,402.31Zm.42-12.65c0-1.51,0-3,0-4.53s0-3,0-4.52q1.89,2.26,3.72,4.52Q269.22,387.4,267.33,389.66Zm-.42-21.7q-.39-7.17-1.08-14.08a220.06,220.06,0,0,1,23.93,4.61,217.79,217.79,0,0,1-13.66,20.18Q271.71,373.3,266.91,368Zm-64.5-59.25c3.28-9.51,7.21-17.24,11.37-22.33,3.88-4.76,7.8-7.17,11.66-7.17s7.78,2.41,11.66,7.17c4.16,5.09,8.09,12.82,11.38,22.33.46,1.36.92,2.75,1.36,4.17a223.47,223.47,0,0,0-24.4,16.48A223.47,223.47,0,0,0,201,312.88C201.48,311.46,201.94,310.07,202.41,308.71Zm-47.3,38.67c-8.55-17.57-10.26-31.45-4.57-37.15,2.22-2.22,5.69-3.31,10.14-3.31,6.95,0,16.3,2.67,27,7.89,1.29.63,2.6,1.29,3.91,2a225.5,225.5,0,0,0-5.6,28.9,225.17,225.17,0,0,0-28.9,5.6C156.41,350,155.74,348.67,155.11,347.38ZM149,408.17c-9.52-3.28-17.24-7.22-22.34-11.37-4.75-3.88-7.16-7.81-7.16-11.67s2.41-7.78,7.16-11.66c5.1-4.16,12.82-8.09,22.34-11.37,1.35-.47,2.75-.92,4.17-1.36a224.2,224.2,0,0,0,16.47,24.39,224.29,224.29,0,0,0-16.47,24.4C151.77,409.09,150.37,408.64,149,408.17Zm38.67,47.29c-17.57,8.56-31.46,10.27-37.15,4.57s-4-19.58,4.57-37.14c.63-1.3,1.3-2.6,2-3.92a223.42,223.42,0,0,0,28.9,5.61,225.5,225.5,0,0,0,5.6,28.9C190.29,454.17,189,454.83,187.69,455.46Zm60.79,6.1c-3.29,9.51-7.22,17.23-11.38,22.33q-11.64,14.26-23.32,0c-4.16-5.1-8.09-12.82-11.37-22.33-.47-1.36-.93-2.75-1.37-4.17a223.47,223.47,0,0,0,24.4-16.48,223.47,223.47,0,0,0,24.4,16.48C249.4,458.81,248.94,460.2,248.48,461.56Zm47.29-38.67c8.55,17.56,10.26,31.45,4.57,37.14s-19.58,4-37.15-4.57c-1.29-.63-2.6-1.29-3.91-2a225.5,225.5,0,0,0,5.6-28.9,223.42,223.42,0,0,0,28.9-5.61C294.47,420.29,295.14,421.59,295.77,422.89Zm1.92-13.36a224.29,224.29,0,0,0-16.47-24.4,224.2,224.2,0,0,0,16.47-24.39c1.42.44,2.82.89,4.17,1.36,9.52,3.28,17.24,7.21,22.34,11.37,4.75,3.88,7.16,7.8,7.16,11.66s-2.41,7.79-7.16,11.67c-5.1,4.15-12.82,8.09-22.34,11.37C300.51,408.64,299.11,409.09,297.69,409.53Z" transform="translate(-71.21 -229.63)"/><path class="cls-7" d="M191.44,336.63" transform="translate(-71.21 -229.63)"/><rect class="cls-4" x="135.23" y="137.5" width="40.5" height="9"/><rect class="cls-4" x="135.23" y="152.25" width="40.5" height="9"/><rect class="cls-4" x="135.23" y="166.63" width="40.5" height="9"/><path class="cls-8" d="M132.38,328.39c-.17-1-.32-2.13-.43-3.26H96.44v23h42A86.11,86.11,0,0,1,132.38,328.39Z" transform="translate(-71.21 -229.63)"/><path class="cls-9" d="M318.93,325.13c-.11,1.13-.26,2.22-.43,3.26a85.62,85.62,0,0,1-6.05,19.74h40.49v-23Z" transform="translate(-71.21 -229.63)"/><path class="cls-10" d="M310.17,298.22c.4.36.79.71,1.13,1,5.49,5.49,7.46,12.45,7.8,19l58.61-28.6V263.43Z" transform="translate(-71.21 -229.63)"/><path class="cls-11" d="M312.56,422.38a86,86,0,0,1,5.94,19.5c.18,1.11.34,2.29.45,3.5h33.53v-23Z" transform="translate(-71.21 -229.63)"/><path class="cls-12" d="M319.08,452.44c-.41,6.43-2.42,13.2-7.78,18.55a19.9,19.9,0,0,1-1.48,1.36l67.66,34.86.23-26.16Z" transform="translate(-71.21 -229.63)"/><path class="cls-13" d="M139.58,471c-5.68-5.67-7.6-12.94-7.83-19.7L71.21,480.83v26.26l69-35.53Z" transform="translate(-71.21 -229.63)"/><path class="cls-14" d="M132.38,441.88a86,86,0,0,1,5.94-19.5H96v23h36C132,444.17,132.2,443,132.38,441.88Z" transform="translate(-71.21 -229.63)"/></svg>