<svg id="Layer_1" data-name="Layer 1" xmlns="http://www.w3.org/2000/svg" xmlns:xlink="http://www.w3.org/1999/xlink" viewBox="0 0 308.69 311.52"><defs><style>.cls-1{fill:#323232;}.cls-2{fill:url(#linear-gradient);}.cls-3{fill:url(#linear-gradient-4);}.cls-4{fill:url(#linear-gradient-7);}.cls-5{fill:url(#linear-gradient-8);}.cls-6{fill:url(#linear-gradient-13);}.cls-7{fill:url(#linear-gradient-14);}.cls-8{fill:url(#linear-gradient-15);}.cls-9{fill:url(#linear-gradient-16);}.cls-10{fill:url(#linear-gradient-17);}.cls-11{fill:url(#linear-gradient-18);}.cls-12{fill:url(#linear-gradient-19);}.cls-13{fill:url(#linear-gradient-20);}.cls-14{fill:url(#linear-gradient-21);}.cls-15{fill:url(#linear-gradient-22);}.cls-16{fill:url(#linear-gradient-23);}.cls-17{fill:url(#linear-gradient-24);}.cls-18{fill:url(#linear-gradient-25);}.cls-19{fill:url(#linear-gradient-26);}.cls-20{fill:url(#linear-gradient-27);}.cls-21{fill:url(#linear-gradient-28);}.cls-22{fill:url(#linear-gradient-31);}.cls-23{fill:#ed3540;}</style><linearGradient id="linear-gradient" x1="224.69" y1="288.34" x2="224.69" y2="229.38" gradientUnits="userSpaceOnUse"><stop offset="0" stop-color="#282828"/><stop offset="0.23" stop-color="#414141"/><stop offset="0.48" stop-color="#545454"/><stop offset="0.74" stop-color="#606060"/><stop offset="1" stop-color="#646464"/></linearGradient><linearGradient id="linear-gradient-4" x1="-824.19" y1="306.09" x2="-767.58" y2="306.09" gradientTransform="matrix(-1, 0, 0, 1, -445.17, 0)" gradientUnits="userSpaceOnUse"><stop offset="0" stop-color="#646464"/><stop offset="0.51" stop-color="#616161"/><stop offset="0.82" stop-color="#595959"/><stop offset="1" stop-color="#505050"/></linearGradient><linearGradient id="linear-gradient-7" x1="297.46" y1="58.96" x2="297.46" y2="0" xlink:href="#linear-gradient"/><linearGradient id="linear-gradient-8" x1="-824.19" y1="275.43" x2="-767.58" y2="275.43" gradientTransform="matrix(-1, 0, 0, 1, -515.5, -229.38)" xlink:href="#linear-gradient-4"/><linearGradient id="linear-gradient-13" x1="-824.19" y1="331.89" x2="-767.58" y2="331.89" xlink:href="#linear-gradient-4"/><linearGradient id="linear-gradient-14" x1="-1105.88" y1="337.64" x2="-1105.88" y2="278.68" gradientTransform="translate(-797.4 590.2) rotate(180)" xlink:href="#linear-gradient"/><linearGradient id="linear-gradient-15" x1="-951.7" y1="337.64" x2="-951.7" y2="278.68" gradientTransform="translate(-727.07 819.58) rotate(180)" xlink:href="#linear-gradient"/><linearGradient id="linear-gradient-16" x1="352.22" y1="354.38" x2="408.83" y2="354.38" gradientTransform="matrix(1, 0, 0, -1, -281.9, 819.58)" xlink:href="#linear-gradient-4"/><linearGradient id="linear-gradient-17" x1="-808.62" y1="337.64" x2="-808.62" y2="278.68" gradientTransform="translate(-797.4 590.2) rotate(180)" xlink:href="#linear-gradient"/><linearGradient id="linear-gradient-18" x1="352.22" y1="324.23" x2="408.83" y2="324.23" gradientTransform="matrix(1, 0, 0, -1, -352.22, 590.2)" xlink:href="#linear-gradient-4"/><linearGradient id="linear-gradient-19" x1="352.22" y1="380.24" x2="408.83" y2="380.24" gradientTransform="matrix(1, 0, 0, -1, -281.9, 819.58)" xlink:href="#linear-gradient-4"/><linearGradient id="linear-gradient-20" x1="-1106.08" y1="312.52" x2="-1049.47" y2="312.52" gradientTransform="translate(-727.07 819.58) rotate(180)" xlink:href="#linear-gradient-4"/><linearGradient id="linear-gradient-21" x1="-1106.08" y1="354.77" x2="-1049.47" y2="354.77" gradientTransform="translate(-727.07 819.58) rotate(180)" xlink:href="#linear-gradient-4"/><linearGradient id="linear-gradient-22" x1="-1094.49" y1="337.64" x2="-1094.49" y2="278.68" gradientTransform="translate(-727.07 819.58) rotate(180)" xlink:href="#linear-gradient"/><linearGradient id="linear-gradient-23" x1="-1106.08" y1="324.52" x2="-1049.47" y2="324.52" gradientTransform="translate(-727.07 819.58) rotate(180)" xlink:href="#linear-gradient-4"/><linearGradient id="linear-gradient-24" x1="-1106.08" y1="380.24" x2="-1049.47" y2="380.24" gradientTransform="translate(-727.07 819.58) rotate(180)" xlink:href="#linear-gradient-4"/><linearGradient id="linear-gradient-25" x1="70.33" y1="263.72" x2="126.94" y2="263.72" gradientTransform="matrix(1, 0, 0, 1, 0, 0)" xlink:href="#linear-gradient-4"/><linearGradient id="linear-gradient-26" x1="70.33" y1="306.47" x2="126.94" y2="306.47" gradientTransform="matrix(1, 0, 0, 1, 0, 0)" xlink:href="#linear-gradient-4"/><linearGradient id="linear-gradient-27" x1="70.33" y1="331.89" x2="126.94" y2="331.89" gradientTransform="matrix(1, 0, 0, 1, 0, 0)" xlink:href="#linear-gradient-4"/><linearGradient id="linear-gradient-28" x1="81.92" y1="288.34" x2="81.92" y2="229.38" xlink:href="#linear-gradient"/><linearGradient id="linear-gradient-31" x1="70.33" y1="275.7" x2="126.94" y2="275.7" gradientTransform="matrix(1, 0, 0, 1, 0, 0)" xlink:href="#linear-gradient-4"/></defs><title>icon-logo</title><path class="cls-1" d="M117.14,338.31,105,325.46H85.44v23.19H118a37.68,37.68,0,0,1-1-8.42C117.09,339.59,117.11,339,117.14,338.31Z" transform="translate(-70.33 -229.38)"/><path class="cls-2" d="M109.05,229.38c-21.26,0-38,12.77-38.69,33.69l23.15,24.42V268.11a15.38,15.38,0,0,1,15.54-15.55H356.57v34.15L379,263V230.39Z" transform="translate(-70.33 -229.38)"/><path class="cls-2" d="M109.05,229.38c-21.26,0-38,12.77-38.69,33.69l23.15,24.42V268.11a15.38,15.38,0,0,1,15.54-15.55H356.57v34.15L379,263V230.39Z" transform="translate(-70.33 -229.38)"/><path class="cls-2" d="M109.05,229.38c-21.26,0-38,12.77-38.69,33.69l23.15,24.42V268.11a15.38,15.38,0,0,1,15.54-15.55H356.57v34.15L379,263V230.39Z" transform="translate(-70.33 -229.38)"/><path class="cls-1" d="M332.25,340.23a37.68,37.68,0,0,1-.95,8.42h32.59V325.46H344.38L332.2,338.31C332.23,339,332.25,339.59,332.25,340.23Z" transform="translate(-70.33 -229.38)"/><path class="cls-3" d="M356.57,286.71l-30.74,32.42a38.22,38.22,0,0,1,3.42,6.33h15.13L379,288.93v-1.09l-22.44-1Z" transform="translate(-70.33 -229.38)"/><path class="cls-3" d="M356.57,286.71l-30.74,32.42a38.22,38.22,0,0,1,3.42,6.33h15.13L379,288.93v-1.09l-22.44-1Z" transform="translate(-70.33 -229.38)"/><path class="cls-3" d="M356.57,286.71l-30.74,32.42a38.22,38.22,0,0,1,3.42,6.33h15.13L379,288.93v-1.09l-22.44-1Z" transform="translate(-70.33 -229.38)"/><polygon class="cls-4" points="286.24 57.45 308.69 58.46 308.69 33.65 286.24 57.33 286.24 57.45"/><polygon class="cls-5" points="286.24 57.45 308.69 58.46 308.69 33.65 286.24 57.33 286.24 57.45"/><polygon class="cls-4" points="286.24 57.45 308.69 58.46 308.69 33.65 286.24 57.33 286.24 57.45"/><polygon class="cls-5" points="286.24 57.45 308.69 58.46 308.69 33.65 286.24 57.33 286.24 57.45"/><polygon class="cls-4" points="286.24 57.45 308.69 58.46 308.69 33.65 286.24 57.33 286.24 57.45"/><polygon class="cls-5" points="286.24 57.45 308.69 58.46 308.69 33.65 286.24 57.33 286.24 57.45"/><path class="cls-1" d="M332.2,338.31l12.18-12.85H329.25A37.76,37.76,0,0,1,332.2,338.31Z" transform="translate(-70.33 -229.38)"/><path class="cls-6" d="M332.2,338.31l12.18-12.85H329.25A37.76,37.76,0,0,1,332.2,338.31Z" transform="translate(-70.33 -229.38)"/><polygon class="cls-7" points="308.69 252.56 308.29 252.56 308.69 252.98 308.69 252.56"/><path class="cls-8" d="M355.83,502.17a15.38,15.38,0,0,1-15.55,15.55H92.77V484.58L70.33,508.26v31.63l270,1c20.94,0,37.5-12.37,38.66-32.72L355.83,483.8Z" transform="translate(-70.33 -229.38)"/><path class="cls-1" d="M332.09,432.86l12.29,13h19.51V422.64H331.64a38.31,38.31,0,0,1,.61,6.77C332.25,430.58,332.19,431.73,332.09,432.86Z" transform="translate(-70.33 -229.38)"/><path class="cls-1" d="M117.09,429.41a38.31,38.31,0,0,1,.61-6.77H85.44v23.18H105l12.29-13C117.14,431.73,117.09,430.58,117.09,429.41Z" transform="translate(-70.33 -229.38)"/><path class="cls-9" d="M92.77,484.58l31.4-33.12a37.53,37.53,0,0,1-3.34-5.64H105L70.33,482.36v.08l22.44,1Z" transform="translate(-70.33 -229.38)"/><polygon class="cls-10" points="22.45 254.07 0 253.06 0 278.88 22.45 255.2 22.45 254.07"/><polygon class="cls-11" points="22.45 254.07 0 253.06 0 278.88 22.45 255.2 22.45 254.07"/><path class="cls-1" d="M117.25,432.86l-12.29,13h15.87A37.42,37.42,0,0,1,117.25,432.86Z" transform="translate(-70.33 -229.38)"/><path class="cls-12" d="M117.25,432.86l-12.29,13h15.87A37.42,37.42,0,0,1,117.25,432.86Z" transform="translate(-70.33 -229.38)"/><path class="cls-13" d="M379,508.26v-2.38c0,.78,0,1.54-.07,2.3Z" transform="translate(-70.33 -229.38)"/><path class="cls-14" d="M325.17,451.46l30.66,32.34v-1.86h22.78l-34.23-36.12H328.51A37.53,37.53,0,0,1,325.17,451.46Z" transform="translate(-70.33 -229.38)"/><path class="cls-15" d="M355.83,483.8l23.11,24.38c0-.76.07-1.52.07-2.3V482.36l-.4-.42H355.83Z" transform="translate(-70.33 -229.38)"/><path class="cls-16" d="M355.83,483.8l23.11,24.38c0-.76.07-1.52.07-2.3V482.36l-.4-.42H355.83Z" transform="translate(-70.33 -229.38)"/><path class="cls-1" d="M328.51,445.82h15.87l-12.29-13A37.64,37.64,0,0,1,328.51,445.82Z" transform="translate(-70.33 -229.38)"/><path class="cls-17" d="M328.51,445.82h15.87l-12.29-13A37.64,37.64,0,0,1,328.51,445.82Z" transform="translate(-70.33 -229.38)"/><path class="cls-18" d="M70.33,263v1.38c0-.46,0-.9,0-1.34Z" transform="translate(-70.33 -229.38)"/><path class="cls-19" d="M123.51,319.13l-30-31.64v.85H70.33v.59L105,325.46h15.13A38.22,38.22,0,0,1,123.51,319.13Z" transform="translate(-70.33 -229.38)"/><path class="cls-1" d="M120.09,325.46H105l12.18,12.85A37.76,37.76,0,0,1,120.09,325.46Z" transform="translate(-70.33 -229.38)"/><path class="cls-20" d="M120.09,325.46H105l12.18,12.85A37.76,37.76,0,0,1,120.09,325.46Z" transform="translate(-70.33 -229.38)"/><path class="cls-21" d="M93.51,287.49,70.36,263.07c0,.44,0,.88,0,1.34v23.93H93.51Z" transform="translate(-70.33 -229.38)"/><path class="cls-21" d="M93.51,287.49,70.36,263.07c0,.44,0,.88,0,1.34v23.93H93.51Z" transform="translate(-70.33 -229.38)"/><path class="cls-21" d="M93.51,287.49,70.36,263.07c0,.44,0,.88,0,1.34v23.93H93.51Z" transform="translate(-70.33 -229.38)"/><path class="cls-22" d="M93.51,287.49,70.36,263.07c0,.44,0,.88,0,1.34v23.93H93.51Z" transform="translate(-70.33 -229.38)"/><path class="cls-23" d="M185.7,314.85a10.75,10.75,0,1,1,10.4-13.49h20.11a27.9,27.9,0,1,0-54.13,11.87,27.9,27.9,0,0,0-28.66,44.61,27.91,27.91,0,0,0,.31,53.6,27.9,27.9,0,0,0,28.18,45,27.9,27.9,0,1,0,54.3,11.37H196.55a10.75,10.75,0,1,1,0-5.49h19.8V420L200.68,435.7l-1.94.8H165.46a10.75,10.75,0,1,1,0-5.49H197.6l6.06-6.05-12.58-12.58h-9.16a10.75,10.75,0,1,1,0-5.49h11.44l.8.81,13.38,13.38,8.81-8.81V387.34H151.28a10.75,10.75,0,1,1,0-5.49h33.29l-6.26-6.26a10.75,10.75,0,1,1,3.88-3.88l10.14,10.14h24v-28l-17.54-16.35H171.86a10.75,10.75,0,1,1,0-5.49h28l1.87.74,14.6,13.61v-39.5H196.1A10.76,10.76,0,0,1,185.7,314.85Z" transform="translate(-70.33 -229.38)"/><path class="cls-23" d="M315.91,357.84a27.9,27.9,0,0,0-28.65-44.61,27.9,27.9,0,1,0-54.13-11.87h20.11a10.75,10.75,0,1,1,0,5.49H233v39.5l14.6-13.61,1.86-.74h28a10.75,10.75,0,1,1,0,5.49h-27L233,353.84v28h24l10.14-10.14a10.75,10.75,0,1,1,3.88,3.88l-6.26,6.26h33.29a10.75,10.75,0,1,1,0,5.49H233v24.93l8.8,8.81,13.39-13.38.8-.81h11.44a10.75,10.75,0,1,1,0,5.49h-9.17L245.67,425l6.06,6.05h32.15a10.76,10.76,0,1,1,0,5.49H250.6l-1.94-.8L233,420v42.31h19.79a10.75,10.75,0,1,1,0,5.49H233.13a27.9,27.9,0,1,0,54.29-11.37,27.9,27.9,0,0,0,28.19-45,27.91,27.91,0,0,0,.3-53.6Z" transform="translate(-70.33 -229.38)"/></svg>