<svg id="Layer_1" data-name="Layer 1" xmlns="http://www.w3.org/2000/svg" xmlns:xlink="http://www.w3.org/1999/xlink" viewBox="0 0 306.5 311.25"><defs><style>.cls-1{fill:url(#linear-gradient);}.cls-2{fill:url(#linear-gradient-2);}.cls-3,.cls-7{fill:none;stroke-linejoin:bevel;stroke-width:23px;}.cls-3{stroke:#000;}.cls-4{fill:#fff;}.cls-5{fill:url(#linear-gradient-3);}.cls-6{fill:#ff0135;}.cls-7{stroke:#242828;}.cls-8{fill:url(#linear-gradient-4);}.cls-9{fill:url(#linear-gradient-5);}.cls-10{fill:url(#linear-gradient-6);}.cls-11{fill:url(#linear-gradient-7);}.cls-12{fill:url(#linear-gradient-8);}.cls-13{fill:url(#linear-gradient-9);}.cls-14{fill:url(#linear-gradient-10);}</style><linearGradient id="linear-gradient" x1="224.35" y1="-226.88" x2="224.35" y2="-174.38" gradientTransform="matrix(1, 0, 0, -1, -71.21, 84.37)" gradientUnits="userSpaceOnUse"><stop offset="0" stop-color="#faffff"/><stop offset="1" stop-color="#969696"/></linearGradient><linearGradient id="linear-gradient-2" x1="224.58" y1="31.87" x2="224.58" y2="84.37" gradientTransform="matrix(1, 0, 0, -1, -71.21, 84.37)" gradientUnits="userSpaceOnUse"><stop offset="0" stop-color="#969696"/><stop offset="1" stop-color="#faffff"/></linearGradient><linearGradient id="linear-gradient-3" x1="71.21" y1="22.85" x2="140.16" y2="22.85" xlink:href="#linear-gradient"/><linearGradient id="linear-gradient-4" x1="96.44" y1="-22.63" x2="138.44" y2="-22.63" xlink:href="#linear-gradient"/><linearGradient id="linear-gradient-5" x1="312.45" y1="-22.63" x2="352.94" y2="-22.63" xlink:href="#linear-gradient-2"/><linearGradient id="linear-gradient-6" x1="310.17" y1="23.18" x2="377.71" y2="23.18" xlink:href="#linear-gradient-2"/><linearGradient id="linear-gradient-7" x1="312.56" y1="-119.88" x2="352.48" y2="-119.88" xlink:href="#linear-gradient-2"/><linearGradient id="linear-gradient-8" x1="309.82" y1="-165.82" x2="377.71" y2="-165.82" xlink:href="#linear-gradient-2"/><linearGradient id="linear-gradient-9" x1="71.21" y1="-165.19" x2="140.21" y2="-165.19" xlink:href="#linear-gradient"/><linearGradient id="linear-gradient-10" x1="96" y1="-119.88" x2="138.32" y2="-119.88" xlink:href="#linear-gradient"/></defs><title>icon_logo</title><path class="cls-1" d="M283.27,258.75h23V276.5c0,21.55-16.88,34.75-38.42,34.75L0,310.25v-51.5l22.27,1v28.5H267.85a15.25,15.25,0,0,0,15.42-15.08V258.75Z" transform="translate(0)"/><path class="cls-2" d="M23.23,52.5H.23V34.75C.23,13.21,17.11,0,38.65,0L306.5,1V52.5l-22.27-1V23H38.65A15.28,15.28,0,0,0,23.23,38.12V52.5Z" transform="translate(0)"/><path class="cls-3" d="M.23,155" transform="translate(0)"/><path class="cls-3" d="M.23,155" transform="translate(0)"/><path class="cls-4" d="M89.48,73.26Zm129.5,0Zm0,164.49Z" transform="translate(0)"/><path class="cls-5" d="M68.37,69.64l.58-.56L.23,33.68,0,59.84,60.53,89.37C60.79,82.6,62.69,75.37,68.37,69.64Z" transform="translate(0)"/><path class="cls-6" d="M268.15,155.5c0-12-12.39-22.83-34.89-30.59-.94-.33-1.91-.64-2.88-1,.47-.9.93-1.81,1.37-2.7,10.42-21.4,11.5-37.85,3-46.31s-24.91-7.39-46.31,3c-.9.44-1.8.91-2.71,1.37-.31-1-.62-1.94-.94-2.88C177,53.89,166.16,41.5,154.19,41.5s-22.83,12.39-30.6,34.89c-.32.94-.63,1.91-.94,2.88-.91-.46-1.81-.93-2.71-1.37-21.4-10.42-37.84-11.5-46.31-3s-7.38,24.91,3,46.31c.44.89.9,1.8,1.37,2.7-1,.31-1.94.62-2.88,1-22.5,7.76-34.89,18.63-34.89,30.59s12.39,22.84,34.89,30.6c.94.33,1.91.64,2.88,1-.47.9-.93,1.81-1.37,2.7-10.42,21.4-11.5,37.85-3,46.31,3.77,3.77,9.13,5.65,15.8,5.65,8.3,0,18.65-2.91,30.51-8.69.9-.43,1.8-.9,2.71-1.36.31,1,.62,1.94.94,2.88,7.77,22.5,18.63,34.89,30.6,34.89S177,257,184.79,234.54c.32-.94.63-1.91.94-2.88.91.46,1.81.93,2.71,1.36,11.86,5.78,22.21,8.69,30.51,8.69,6.67,0,12-1.88,15.8-5.65,8.46-8.46,7.38-24.91-3-46.31-.44-.89-.9-1.8-1.37-2.7,1-.31,1.94-.62,2.88-1C255.79,178.37,268.15,167.47,268.15,155.5ZM192,85.18C202.69,80,212,77.29,219,77.29c4.45,0,7.92,1.09,10.14,3.31,5.69,5.7,4,19.58-4.57,37.15-.63,1.29-1.3,2.6-2,3.91a223.41,223.41,0,0,0-28.9-5.6,226.84,226.84,0,0,0-5.6-28.9Q190,86.13,192,85.18Zm-3.83,70.32q0,7-.31,13.93-4.65,5.07-9.62,10.06c-3.32,3.32-6.69,6.53-10.07,9.62q-6.87.31-13.92.32t-13.92-.32c-3.38-3.09-6.75-6.3-10.07-9.62s-6.52-6.68-9.62-10.06q-.3-6.88-.31-13.93c0-4.69.11-9.34.31-13.92q4.65-5.07,9.62-10.06c3.32-3.33,6.69-6.53,10.07-9.63q6.87-.3,13.92-.31t13.92.31c3.38,3.1,6.75,6.3,10.07,9.63s6.52,6.68,9.62,10.06c.2,4.58.31,9.23.31,13.92Zm-4.27-29.64c-1.07-1.07-2.15-2.12-3.23-3.17q2.94.25,5.83.57c.2,1.92.4,3.86.57,5.82ZM171.41,114q-5.34-4.8-10.72-9.19a216.44,216.44,0,0,1,20.18-13.66,213.59,213.59,0,0,1,4.61,23.93c-4.6-.46-9.3-.83-14.07-1.08Zm-12.62-.42h-9c1.51-1.27,3-2.51,4.52-3.72C155.76,111.11,157.26,112.35,158.79,113.62Zm-21.7.42c-4.77.25-9.47.62-14.07,1.08a213.59,213.59,0,0,1,4.61-23.93,216.15,216.15,0,0,1,20.16,13.66q-5.39,4.4-10.74,9.19Zm-9.3,8.65c-1.08,1-2.16,2.1-3.22,3.17s-2.13,2.15-3.17,3.22c.16-2,.36-3.9.56-5.82Q124.89,122.95,127.79,122.69Zm-15,15.68q-4.79,5.32-9.19,10.71A216.44,216.44,0,0,1,89.94,128.9a218.65,218.65,0,0,1,23.93-4.61Q113.15,131.17,112.79,138.37ZM112.37,151v9q-1.89-2.26-3.72-4.53,1.8-2.29,3.69-4.56Zm.42,21.7q.39,7.17,1.08,14.07a218.17,218.17,0,0,1-23.93-4.6A216.59,216.59,0,0,1,103.6,162q4.37,5.37,9.19,10.68Zm8.66,9.24q1.56,1.62,3.17,3.23c1.06,1.07,2.14,2.12,3.22,3.17q-2.94-.26-5.83-.57c-.22-2-.43-3.9-.59-5.87Zm15.63,15q5.34,4.8,10.72,9.19a216.44,216.44,0,0,1-20.18,13.66A213.59,213.59,0,0,1,123,195.93c4.57.44,9.27.79,14,1Zm12.66.42h9c-1.5,1.27-3,2.5-4.52,3.72-1.54-1.26-3-2.49-4.55-3.78Zm21.7-.42c4.77-.25,9.47-.62,14.07-1.08a213.59,213.59,0,0,1-4.61,23.93,216.44,216.44,0,0,1-20.18-13.66q5.34-4.42,10.69-9.23Zm9.24-8.65c1.08-1.05,2.16-2.1,3.23-3.17S186,183,187.08,182c-.17,2-.37,3.91-.57,5.83q-2.92.27-5.86.58Zm15-15.64q4.78-5.34,9.19-10.72a216.59,216.59,0,0,1,13.66,20.19,218.17,218.17,0,0,1-23.93,4.6q.66-6.94,1-14.11Zm.42-12.65v-9c1.26,1.51,2.5,3,3.72,4.52L196.12,160Zm-.42-21.7q-.39-7.17-1.08-14.08a218.65,218.65,0,0,1,23.93,4.61,216.44,216.44,0,0,1-13.66,20.18q-4.42-5.42-9.22-10.71Zm-64.5-59.25c3.28-9.51,7.21-17.24,11.37-22.33,3.88-4.76,7.8-7.17,11.66-7.17S162,52,165.92,56.79c4.16,5.09,8.09,12.82,11.38,22.33.46,1.36.92,2.75,1.36,4.17a223.35,223.35,0,0,0-24.4,16.48,223.14,223.14,0,0,0-24.47-16.52c.48-1.42.94-2.81,1.41-4.17Zm-47.3,38.67c-8.55-17.57-10.26-31.45-4.57-37.15,2.22-2.22,5.69-3.31,10.14-3.31,7,0,16.3,2.67,27,7.89,1.29.63,2.6,1.29,3.91,2a226.84,226.84,0,0,0-5.6,28.9,223.41,223.41,0,0,0-28.9,5.6c-.71-1.35-1.38-2.68-2-4Zm-6.14,60.75c-9.52-3.28-17.24-7.22-22.34-11.37-4.75-3.88-7.16-7.81-7.16-11.67s2.41-7.78,7.16-11.66c5.1-4.16,12.82-8.09,22.34-11.37,1.35-.47,2.75-.92,4.17-1.36A224.1,224.1,0,0,0,98.43,155.5,223.26,223.26,0,0,0,82,179.9C80.56,179.46,79.16,179,77.79,178.54Zm38.67,47.29C98.89,234.39,85,236.1,79.31,230.4s-4-19.58,4.57-37.14c.63-1.3,1.3-2.6,2-3.92a223.44,223.44,0,0,0,28.9,5.61,226.84,226.84,0,0,0,5.6,28.9c-1.3.69-2.59,1.35-3.9,2Zm60.79,6.1c-3.29,9.51-7.22,17.23-11.38,22.33q-11.64,14.26-23.32,0c-4.16-5.1-8.09-12.82-11.37-22.33-.47-1.36-.93-2.75-1.37-4.17a223.35,223.35,0,0,0,24.4-16.48,223.35,223.35,0,0,0,24.4,16.48c-.42,1.42-.88,2.81-1.34,4.17Zm47.29-38.67c8.55,17.56,10.26,31.45,4.57,37.14s-19.58,4-37.15-4.57c-1.29-.63-2.6-1.29-3.91-2a226.84,226.84,0,0,0,5.6-28.9,223.44,223.44,0,0,0,28.9-5.61c.71,1.34,1.38,2.64,2,3.94Zm1.92-13.36A223.26,223.26,0,0,0,210,155.5a224.1,224.1,0,0,0,16.47-24.39c1.42.44,2.82.89,4.17,1.36,9.52,3.28,17.24,7.21,22.34,11.37,4.75,3.88,7.16,7.8,7.16,11.66s-2.41,7.79-7.16,11.67c-5.1,4.15-12.82,8.09-22.34,11.37-1.33.47-2.73.92-4.15,1.36Z" transform="translate(0)"/><path class="cls-7" d="M120.23,107" transform="translate(0)"/><rect class="cls-4" x="135.23" y="137.5" width="40.5" height="9"/><rect class="cls-4" x="135.23" y="152.25" width="40.5" height="9"/><rect class="cls-4" x="135.23" y="166.63" width="40.5" height="9"/><path class="cls-8" d="M61.17,98.76c-.17-1-.32-2.13-.43-3.26H25.23v23h42A86.23,86.23,0,0,1,61.17,98.76Z" transform="translate(0)"/><path class="cls-9" d="M247.72,95.5c-.11,1.13-.26,2.22-.43,3.26a85.23,85.23,0,0,1-6,19.74h40.49v-23Z" transform="translate(0)"/><path class="cls-10" d="M239,68.59c.4.36.79.71,1.13,1,5.49,5.49,7.46,12.45,7.8,19L306.5,60V33.8Z" transform="translate(0)"/><path class="cls-11" d="M241.35,192.75a85.82,85.82,0,0,1,5.94,19.5c.18,1.11.34,2.29.45,3.5h33.53v-23Z" transform="translate(0)"/><path class="cls-12" d="M247.87,222.81c-.41,6.43-2.42,13.2-7.78,18.55a19.07,19.07,0,0,1-1.48,1.36l67.66,34.86.23-26.16Z" transform="translate(0)"/><path class="cls-13" d="M68.37,241.37c-5.68-5.67-7.6-12.94-7.83-19.7L0,251.2v26.26l69-35.53Z" transform="translate(0)"/><path class="cls-14" d="M61.17,212.25a85.82,85.82,0,0,1,5.94-19.5H24.79v23h36A21.93,21.93,0,0,1,61.17,212.25Z" transform="translate(0)"/></svg>